<svg xmlns="http://www.w3.org/2000/svg" version="1.1" xmlns:xlink="http://www.w3.org/1999/xlink" xmlns:svgjs="http://svgjs.dev/svgjs" width="1000" height="1000" viewBox="0 0 1000 1000"><rect width="1000" height="1000" fill="#0c1d36"></rect><g transform="matrix(0.7,0,0,0.7,149.57576201379237,396.2562470207524)"><svg viewBox="0 0 396 118" data-background-color="#0c1d36" preserveAspectRatio="xMidYMid meet" height="297" width="1000" xmlns="http://www.w3.org/2000/svg" xmlns:xlink="http://www.w3.org/1999/xlink"><g id="tight-bounds" transform="matrix(1,0,0,1,0.2399974893403396,-0.11706180110044784)"><svg viewBox="0 0 395.52 118.23412360220088" height="118.23412360220088" width="395.52"><g><svg viewBox="0 0 672.3906565880795 201" height="118.23412360220088" width="395.52"><g><rect width="8.30143274701987" height="201" x="258.78156556291395" y="0" fill="#f9cc0b" opacity="1" stroke-width="0" stroke="transparent" fill-opacity="1" class="rect-o-0" data-fill-palette-color="primary" rx="1%" id="o-0" data-palette-color="#f9cc0b"></rect></g><g transform="matrix(1,0,0,1,288.8144976476822,0.4999999999999858)"><svg viewBox="0 0 383.5761589403974 200.00000000000003" height="200.00000000000003" width="383.5761589403974"><g id="textblocktransform"><svg viewBox="0 0 383.5761589403974 200.00000000000003" height="200.00000000000003" width="383.5761589403974" id="textblock"><g><svg viewBox="0 0 383.5761589403974 200.00000000000003" height="200.00000000000003" width="383.5761589403974"><g transform="matrix(1,0,0,1,0,0)"><svg width="383.5761589403974" viewBox="0.9499998092651367 -34.75 145.6999969482422 72.5" height="200.00000000000003" data-palette-color="#f9cc0b"><svg></svg><svg></svg><g class="undefined-text-0" data-fill-palette-color="primary" id="text-0"><path xmlns="http://www.w3.org/2000/svg" d="M30.5-34.75l2.05 34.75h-8.35l-0.15-13.2-0.05-6.95c0-1.533 0.033-3.833 0.1-6.9v0l-3.25 23.45h-8.3l-3.4-23.45c0.133 3.633 0.2 7.183 0.2 10.65v0 3.25l-0.15 13.15h-8.25l2-34.75h10.8l3.1 23.25 2.7-23.25zM44.9-34.75c4.4 0 7.76 0.973 10.08 2.92 2.313 1.953 3.47 4.797 3.47 8.53v0c0 3.933-1.093 6.907-3.28 8.92-2.18 2.02-5.27 3.03-9.27 3.03v0h-1.7v11.35h-8.85v-34.75zM45.05-17.65c1.6 0 2.723-0.427 3.37-1.28 0.653-0.847 0.98-2.287 0.98-4.32v0c0-1.8-0.307-3.127-0.92-3.98-0.62-0.847-1.713-1.27-3.28-1.27v0h-1v10.85z" fill="#f9cc0b" fill-rule="nonzero" stroke="none" stroke-width="1" stroke-linecap="butt" stroke-linejoin="miter" stroke-miterlimit="10" stroke-dasharray="" stroke-dashoffset="0" font-family="none" font-weight="none" font-size="none" text-anchor="none" style="mix-blend-mode: normal" data-fill-palette-color="primary" opacity="1"></path><path xmlns="http://www.w3.org/2000/svg" d="M11.4 3c4.4 0 7.76 0.973 10.08 2.92 2.313 1.953 3.47 4.797 3.47 8.53v0c0 3.933-1.09 6.907-3.27 8.92-2.187 2.02-5.28 3.03-9.28 3.03v0h-1.7v11.35h-8.85v-34.75zM11.55 20.1c1.6 0 2.727-0.427 3.38-1.28 0.647-0.847 0.97-2.287 0.97-4.32v0c0-1.8-0.307-3.127-0.92-3.98-0.62-0.847-1.713-1.27-3.28-1.27v0h-1v10.85zM27.2 3h8.85v27.85h10.7l-0.9 6.9h-18.65zM73.25 37.75h-8.95l-1.2-7.25h-6.9l-1.15 7.25h-8.85l8.3-34.75h10.5zM59.65 9.35l-2.4 14.85h4.85zM89.9 3h8.95l-9.1 21.8v12.95h-8.85v-12.9l-9.1-21.85h9.25l4.4 15zM100 3h19.1l-0.95 6.25h-9.3v7.8h8.2v6.15h-8.2v8.25h9.95v6.3h-18.8zM137.3 37.75l-5.35-12.95h-1.55v12.95h-8.85v-34.75h9.95c8.8 0 13.2 3.583 13.2 10.75v0c0 2-0.4 3.823-1.2 5.47-0.8 1.653-2.067 2.963-3.8 3.93v0l6.95 14.6zM130.4 9.15v9.6h1.25c1.467 0 2.51-0.393 3.13-1.18 0.613-0.78 0.92-2.053 0.92-3.82v0c0-1.567-0.34-2.727-1.02-3.48-0.687-0.747-1.747-1.12-3.18-1.12v0z" fill="#f9cc0b" fill-rule="nonzero" stroke="none" stroke-width="1" stroke-linecap="butt" stroke-linejoin="miter" stroke-miterlimit="10" stroke-dasharray="" stroke-dashoffset="0" font-family="none" font-weight="none" font-size="none" text-anchor="none" style="mix-blend-mode: normal" data-fill-palette-color="primary" opacity="1"></path></g></svg></g></svg></g></svg></g></svg></g><g transform="matrix(1,0,0,1,0,19.31930314025061)"><svg viewBox="0 0 237.0500662251656 162.36139371949878" height="162.36139371949878" width="237.0500662251656"><g><svg xmlns="http://www.w3.org/2000/svg" xmlns:xlink="http://www.w3.org/1999/xlink" version="1.1" x="0" y="0" viewBox="12.938995361328125 89.68000030517578 487.0610046386719 333.6000061035156" enable-background="new 0 0 512 512" xml:space="preserve" height="162.36139371949878" width="237.0500662251656" class="icon-icon-0" data-fill-palette-color="accent" id="icon-0"><g fill="#f9f9f9" data-fill-palette-color="accent"><g fill="#f9f9f9" data-fill-palette-color="accent"><g fill="#f9f9f9" data-fill-palette-color="accent"><path d="M459.66 423.28h-357c-2.2 0-4-1.801-4-4.001 0-2.211 1.8-4 4-4h357c2.21 0 4 1.789 4 4C463.66 421.479 461.87 423.28 459.66 423.28zM32.66 423.28H16.94c-1.06 0-2.09-0.432-2.83-1.171-0.74-0.75-1.17-1.779-1.17-2.83V93.68c0-1.06 0.43-2.09 1.17-2.83 0.75-0.75 1.78-1.17 2.83-1.17h344c2.199 0 4 1.79 4 4 0 2.2-1.801 4-4 4h-340v317.599h11.72c2.21 0 4 1.789 4 4C36.66 421.479 34.87 423.28 32.66 423.28zM496 389.609c-2.21 0-4-1.791-4-3.989V97.68h-61.061c-2.211 0-4-1.8-4-4 0-2.21 1.789-4 4-4H496c1.05 0 2.08 0.42 2.83 1.17 0.739 0.74 1.17 1.771 1.17 2.83v291.94C500 387.818 498.2 389.609 496 389.609z" fill="#f9f9f9" data-fill-palette-color="accent"></path></g><g fill="#f9f9f9" data-fill-palette-color="accent"><path d="M439.55 396.311h-285.9c-2.2 0-4-1.791-4-4 0-2.211 1.8-4 4-4h285.9c2.2 0 4 1.789 4 4C443.55 394.52 441.75 396.311 439.55 396.311zM130.21 396.311H77.67c-2.21 0-4-1.791-4-4 0-2.211 1.79-4 4-4h52.54c2.2 0 4 1.789 4 4C134.21 394.52 132.41 396.311 130.21 396.311z" fill="#f9f9f9" data-fill-palette-color="accent"></path></g><g fill="#f9f9f9" data-fill-palette-color="accent"><path d="M141.95 408.01L141.95 408.01c-8.68 0-15.74-7.05-15.74-15.699 0-4.221 1.64-8.17 4.62-11.141 2.96-2.97 6.92-4.609 11.12-4.62l0 0 0 0 0 0 0 0c4.2 0.011 8.14 1.65 11.1 4.62 2.96 2.971 4.59 6.93 4.6 11.141C157.65 400.96 150.61 408.01 141.95 408.01zM141.95 384.55c-4.27 0.011-7.74 3.49-7.75 7.761 0.01 4.239 3.49 7.689 7.75 7.699 4.24-0.01 7.69-3.46 7.7-7.699C149.65 388.029 146.19 384.55 141.95 384.55L141.95 384.55z" fill="#f9f9f9" data-fill-palette-color="accent"></path></g><g fill="#f9f9f9" data-fill-palette-color="accent"><path d="M204.23 283.29c-0.7 0-1.4-0.181-2-0.53-1.24-0.71-2-2.039-2-3.47V158.56c0-1.43 0.76-2.76 2-3.47 1.21-0.7 2.78-0.7 4 0.01l52.241 30.2 36.569 21.11c0.931 0.54 1.59 1.399 1.87 2.43 0.27 1.03 0.13 2.11-0.4 3.04-0.71 1.229-2.039 2-3.47 2-0.7 0-1.39-0.19-2-0.54l-36.57-21.11-46.25-26.739v106.868l46.25-26.679 52.261-30.21c0.608-0.35 1.3-0.54 1.999-0.54 1.431 0 2.75 0.771 3.471 2 1.1 1.91 0.449 4.36-1.46 5.46l-52.271 30.22-52.241 30.15C205.62 283.109 204.93 283.29 204.23 283.29z" fill="#f9f9f9" data-fill-palette-color="accent"></path></g><g fill="#f9f9f9" data-fill-palette-color="accent"><path d="M419.67 242.27c-0.7 0-1.39-0.189-1.99-0.54-1.239-0.71-2-2.04-2-3.46v-38.64c0-1.42 0.761-2.75 1.99-3.46 1.22-0.7 2.79-0.7 4 0l33.479 19.3 0 0c1.239 0.71 2 2.03 2 3.46 0 1.42-0.761 2.75-1.989 3.46l-33.49 19.34C421.06 242.08 420.37 242.27 419.67 242.27zM423.68 206.55v24.8l21.48-12.41L423.68 206.55z" fill="#f9f9f9" data-fill-palette-color="accent"></path></g><g fill="#f9f9f9" data-fill-palette-color="accent"><path d="M386.21 242.27c-0.71 0-1.4-0.189-2.01-0.54-1.23-0.71-1.99-2.04-1.99-3.46v-38.64c0-1.42 0.76-2.75 1.99-3.46 1.22-0.7 2.79-0.7 4 0l33.47 19.3 0 0c1.24 0.71 2.01 2.03 2.01 3.46 0 1.42-0.77 2.75-2 3.46l-33.479 19.34C387.59 242.08 386.899 242.27 386.21 242.27zM390.21 206.55v24.79l21.479-12.4L390.21 206.55z" fill="#f9f9f9" data-fill-palette-color="accent"></path></g><g fill="#f9f9f9" data-fill-palette-color="accent"><path d="M93.28 242.27c-0.7 0-1.39-0.189-1.99-0.54L57.8 222.39c-1.23-0.71-1.99-2.04-1.99-3.46 0-1.43 0.76-2.75 2-3.46l33.48-19.3c1.21-0.7 2.78-0.7 4 0 1.23 0.71 1.99 2.04 1.99 3.46v38.64c0 1.42-0.76 2.75-2 3.46C94.68 242.08 93.99 242.27 93.28 242.27zM67.8 218.939l21.48 12.41v-24.8L67.8 218.939z" fill="#f9f9f9" data-fill-palette-color="accent"></path></g><g fill="#f9f9f9" data-fill-palette-color="accent"><path d="M126.73 242.27c-0.7 0-1.39-0.189-2-0.54l-16.74-9.649-16.71-9.69c-1.23-0.71-2-2.04-2-3.46 0-1.43 0.77-2.75 2-3.46l33.45-19.3c1.22-0.7 2.79-0.7 4 0 1.23 0.71 2 2.04 2 3.46v38.64c0 1.42-0.77 2.75-2 3.46C128.12 242.08 127.43 242.27 126.73 242.27zM101.27 218.939l21.46 12.4v-24.78L101.27 218.939z" fill="#f9f9f9" data-fill-palette-color="accent"></path></g><g fill="#f9f9f9" data-fill-palette-color="accent"><path d="M496 363.21h-65.061c-2.211 0-4-1.8-4-4 0-2.21 1.789-4 4-4H496c2.2 0 4 1.79 4 4C500 361.41 498.2 363.21 496 363.21zM360.939 363.21h-344c-2.21 0-4-1.8-4-4 0-2.21 1.79-4 4-4h344c2.199 0 4 1.79 4 4C364.939 361.41 363.14 363.21 360.939 363.21z" fill="#f9f9f9" data-fill-palette-color="accent"></path></g></g></g></svg></g></svg></g></svg></g><defs></defs></svg><rect width="395.52" height="118.23412360220088" fill="none" stroke="none" visibility="hidden"></rect></g></svg></g></svg>